# xmcd
#
# Track frame offsets:
# 183
# 15445
# 30505
#
# Disc length: 674 seconds
#
# Revision: 3
# Processed by: cddbd v1.5.2PL0 Copyright (c) Steve Scherf et al.
# Submitted via: TinyPlayer 2.8
#
DISCID=1302a003
DTITLE=Robson and Jerome - Unchained Melody/White Cliffs of Dover [Single]
DYEAR=1995
DGENRE=Easy Listening
TTITLE0=Unchained Melody
TTITLE1=(There'll Be Bluebirds Over) The White Cliffs of Dover
TTITLE2=(There'll Be Bluebirds Over) The White Cliffs of Dover [Extended Version]
EXTD=Location:  - UPC: 743212843620 - Catalogue number: 74321284362 - Label: RCA, BMG UK Limited - ASIN: B00004WQPT - Release Date: 1995 05 05 - Discogs: m168413,r1072980 - MUSICBRAINZ_ALBUMID:  - AMG: ;
EXTT0=
EXTT1=
EXTT2=
PLAYORDER=
